<svg xmlns="http://www.w3.org/2000/svg" width="100" height="16" viewBox="0 0 100 16" fill="none"><path fill-rule="evenodd" clip-rule="evenodd" d="M7.65146 0.877217C7.74127 0.600824 8.13229 0.600823 8.2221 0.877217L9.89005 6.01065C9.93021 6.13426 10.0454 6.21795 10.1754 6.21795H15.573C15.8636 6.21795 15.9844 6.58983 15.7493 6.76065L11.3826 9.93329C11.2774 10.0097 11.2334 10.1451 11.2736 10.2687L12.9415 15.4021C13.0313 15.6785 12.715 15.9084 12.4799 15.7375L8.11311 12.5649C8.00797 12.4885 7.86559 12.4885 7.76044 12.5649L3.39368 15.7375C3.15857 15.9084 2.84222 15.6785 2.93203 15.4021L4.59998 10.2687C4.64014 10.1451 4.59615 10.0097 4.491 9.93329L0.12424 6.76065C-0.110875 6.58983 0.00995789 6.21795 0.300575 6.21795H5.69819C5.82816 6.21795 5.94334 6.13426 5.98351 6.01065L7.65146 0.877217ZM28.6515 0.877217C28.7413 0.600824 29.1323 0.600823 29.2221 0.877217L30.8901 6.01065C30.9302 6.13426 31.0454 6.21795 31.1754 6.21795H36.573C36.8636 6.21795 36.9844 6.58983 36.7493 6.76065L32.3826 9.93329C32.2774 10.0097 32.2334 10.1451 32.2736 10.2687L33.9415 15.4021C34.0313 15.6785 33.715 15.9084 33.4799 15.7375L29.1131 12.5649C29.008 12.4885 28.8656 12.4885 28.7604 12.5649L24.3937 15.7375C24.1586 15.9084 23.8422 15.6785 23.932 15.4021L25.6 10.2687C25.6401 10.1451 25.5961 10.0097 25.491 9.93329L21.1242 6.76065C20.8891 6.58983 21.01 6.21795 21.3006 6.21795H26.6982C26.8282 6.21795 26.9433 6.13426 26.9835 6.01065L28.6515 0.877217ZM50.2221 0.877217C50.1323 0.600823 49.7413 0.600824 49.6515 0.877217L47.9835 6.01065C47.9433 6.13426 47.8282 6.21795 47.6982 6.21795H42.3006C42.01 6.21795 41.8891 6.58983 42.1242 6.76065L46.491 9.93329C46.5961 10.0097 46.6401 10.1451 46.6 10.2687L44.932 15.4021C44.8422 15.6785 45.1586 15.9084 45.3937 15.7375L49.7604 12.5649C49.8656 12.4885 50.008 12.4885 50.1131 12.5649L54.4799 15.7375C54.715 15.9084 55.0313 15.6785 54.9415 15.4021L53.2736 10.2687C53.2334 10.1451 53.2774 10.0097 53.3826 9.93329L57.7493 6.76065C57.9844 6.58983 57.8636 6.21795 57.573 6.21795H52.1754C52.0454 6.21795 51.9302 6.13426 51.89 6.01065L50.2221 0.877217ZM70.6515 0.877217C70.7413 0.600824 71.1323 0.600823 71.2221 0.877217L72.8901 6.01065C72.9302 6.13426 73.0454 6.21795 73.1754 6.21795H78.573C78.8636 6.21795 78.9844 6.58983 78.7493 6.76065L74.3826 9.93329C74.2774 10.0097 74.2334 10.1451 74.2736 10.2687L75.9415 15.4021C76.0313 15.6785 75.715 15.9084 75.4799 15.7375L71.1131 12.5649C71.008 12.4885 70.8656 12.4885 70.7604 12.5649L66.3937 15.7375C66.1586 15.9084 65.8422 15.6785 65.932 15.4021L67.6 10.2687C67.6401 10.1451 67.5961 10.0097 67.491 9.93329L63.1242 6.76065C62.8891 6.58983 63.01 6.21795 63.3006 6.21795H68.6982C68.8282 6.21795 68.9433 6.13426 68.9835 6.01065L70.6515 0.877217ZM92.2221 0.877217C92.1323 0.600823 91.7413 0.600824 91.6515 0.877217L89.9835 6.01065C89.9433 6.13426 89.8282 6.21795 89.6982 6.21795H84.3006C84.01 6.21795 83.8891 6.58983 84.1242 6.76065L88.491 9.93329C88.5961 10.0097 88.6401 10.1451 88.6 10.2687L86.932 15.4021C86.8422 15.6785 87.1586 15.9084 87.3937 15.7375L91.7604 12.5649C91.8656 12.4885 92.008 12.4885 92.1131 12.5649L96.4799 15.7375C96.715 15.9084 97.0313 15.6785 96.9415 15.4021L95.2736 10.2687C95.2334 10.1451 95.2774 10.0097 95.3826 9.93329L99.7493 6.76065C99.9844 6.58983 99.8636 6.21795 99.573 6.21795H94.1754C94.0454 6.21795 93.9302 6.13426 93.89 6.01065L92.2221 0.877217Z" fill="url(#paint0_linear_1493_13)"></path><defs><linearGradient id="paint0_linear_1493_13" x1="0" y1="8.23306" x2="99.8736" y2="8.23306" gradientUnits="userSpaceOnUse"><stop stop-color="#76CCC9"></stop><stop offset="0.225" stop-color="#6BB943"></stop><stop offset="0.445" stop-color="#F8AB48"></stop><stop offset="0.66" stop-color="#E23D30"></stop><stop offset="0.81" stop-color="#C7224E"></stop><stop offset="1" stop-color="#84428F"></stop></linearGradient></defs></svg>